# xmcd
#
# Track frame offsets:
#	150
#	13637
#	26719
#	38429
#	50263
#	67011
#	79292
#	88014
#	99270
#	113282
#	124047
#	141483
#	151862
#	160125
#	172401
#	183603
#	191990
#	205209
#	220175
#	232593
#
# Disc length: 3285 seconds
#
# Revision: 2
# Processed by: cddbd v1.4PL0 Copyright (c) Steve Scherf et al.
# Submitted via: audiograbber 1.81.02
#
DISCID=0c0cd314
DTITLE=Various Artist - Tango v5
DYEAR=2000
DGENRE=Tango
TTITLE0=Consejo De Oro
TTITLE1=La Guitarrita
TTITLE2=Desde el Alma
TTITLE3=Cafe de Los Angelitos
TTITLE4=Inspiration
TTITLE5=Puente Alsina
TTITLE6=Mi Buenos Aires  Querido
TTITLE7=Don Juan
TTITLE8=Mano a Mano
TTITLE9=Historia de un Amor
TTITLE10=Una Cancion
TTITLE11=Aquaforte
TTITLE12=Campo Afuera
TTITLE13=Si De Mi Te Bas  Olivado
TTITLE14=Un Alma Buena
TTITLE15=La Brisa
TTITLE16=Che Bandoneon
TTITLE17=Volver
TTITLE18=Tiempos Viejos
TTITLE19=Cuartito Azul
EXTD=
EXTT0=
EXTT1=
EXTT2=
EXTT3=
EXTT4=
EXTT5=
EXTT6=
EXTT7=
EXTT8=
EXTT9=
EXTT10=
EXTT11=
EXTT12=
EXTT13=
EXTT14=
EXTT15=
EXTT16=
EXTT17=
EXTT18=
EXTT19=
PLAYORDER=
